CddbId:0d11bf24:[150, 9551, 14463, 25139, 32499, 46157, 55493, 62468, 77714, 85327, 97094, 105503, 120319, 129830, 141896, 155500, 160822, 165616, 174332, 183658, 192541, 202044, 215246, 224234, 236330, 246534, 255038, 266185, 274292, 281373, 290368, 296441, 311399, 316319, 326359, 333241]:340875:74:0d11bf24 36 150 9551 14463 25139 32499 46157 55493 62468 77714 85327 97094 105503 120319 129830 141896 155500 160822 165616 174332 183658 192541 202044 215246 224234 236330 246534 255038 266185 274292 281373 290368 296441 311399 316319 326359 333241 4545: 36 0 0 0 0 0 0 0 0 0 0 0 0 0 0 0 0 0 0 0 0 0 0 0 0 0 0 0 0 0 0 0 0 0 0 0 0 4545
num_tracks: 36
offsets: [150, 9551, 14463, 25139, 32499, 46157, 55493, 62468, 77714, 85327, 97094, 105503, 120319, 129830, 141896, 155500, 160822, 165616, 174332, 183658, 192541, 202044, 215246, 224234, 236330, 246534, 255038, 266185, 274292, 281373, 290368, 296441, 311399, 316319, 326359, 333241]
extents: [0, 0, 0, 0, 0, 0, 0, 0, 0, 0, 0, 0, 0, 0, 0, 0, 0, 0, 0, 0, 0, 0, 0, 0, 0, 0, 0, 0, 0, 0, 0, 0, 0, 0, 0, 0]
total_length: 4545
cddb: [219266852, 36, 150, 9551, 14463, 25139, 32499, 46157, 55493, 62468, 77714, 85327, 97094, 105503, 120319, 129830, 141896, 155500, 160822, 165616, 174332, 183658, 192541, 202044, 215246, 224234, 236330, 246534, 255038, 266185, 274292, 281373, 290368, 296441, 311399, 316319, 326359, 333241, 4545]
musicbrainz: ('36 150 9551 14463 25139 32499 46157 55493 62468 77714 85327 97094 105503 120319 129830 141896 155500 160822 165616 174332 183658 192541 202044 215246 224234 236330 246534 255038 266185 274292 281373 290368 296441 311399 316319 326359 333241 340919', 'nAXrERzYSXWIq2Q.g_g8iUCpiCw-')

CD record:
Device type    : Removable CD-ROM
Version        : 0
Response Format: 1
Vendor_info    : 'SAMSUNG '
Identification : 'CD-ROM SC-148A  '
Revision       : 'B403'
Device seems to be: Generic mmc CD-ROM.
Using generic SCSI-3/mmc   CD-ROM driver (mmc_cd).
Driver flags   : MMC-2 SWABAUDIO 
Supported modes: 
first: 1 last 36
track:   1 lba:         0 (        0) 00:02:00 adr: 1 control: 2 mode: -1
track:   2 lba:      9401 (    37604) 02:07:26 adr: 1 control: 2 mode: -1
track:   3 lba:     14313 (    57252) 03:12:63 adr: 1 control: 2 mode: -1
track:   4 lba:     24989 (    99956) 05:35:14 adr: 1 control: 2 mode: -1
track:   5 lba:     32349 (   129396) 07:13:24 adr: 1 control: 2 mode: -1
track:   6 lba:     46007 (   184028) 10:15:32 adr: 1 control: 2 mode: -1
track:   7 lba:     55343 (   221372) 12:19:68 adr: 1 control: 2 mode: -1
track:   8 lba:     62318 (   249272) 13:52:68 adr: 1 control: 2 mode: -1
track:   9 lba:     77564 (   310256) 17:16:14 adr: 1 control: 2 mode: -1
track:  10 lba:     85177 (   340708) 18:57:52 adr: 1 control: 2 mode: -1
track:  11 lba:     96944 (   387776) 21:34:44 adr: 1 control: 2 mode: -1
track:  12 lba:    105353 (   421412) 23:26:53 adr: 1 control: 2 mode: -1
track:  13 lba:    120169 (   480676) 26:44:19 adr: 1 control: 2 mode: -1
track:  14 lba:    129680 (   518720) 28:51:05 adr: 1 control: 2 mode: -1
track:  15 lba:    141746 (   566984) 31:31:71 adr: 1 control: 2 mode: -1
track:  16 lba:    155350 (   621400) 34:33:25 adr: 1 control: 2 mode: -1
track:  17 lba:    160672 (   642688) 35:44:22 adr: 1 control: 2 mode: -1
track:  18 lba:    165466 (   661864) 36:48:16 adr: 1 control: 2 mode: -1
track:  19 lba:    174182 (   696728) 38:44:32 adr: 1 control: 2 mode: -1
track:  20 lba:    183508 (   734032) 40:48:58 adr: 1 control: 2 mode: -1
track:  21 lba:    192391 (   769564) 42:47:16 adr: 1 control: 2 mode: -1
track:  22 lba:    201894 (   807576) 44:53:69 adr: 1 control: 2 mode: -1
track:  23 lba:    215096 (   860384) 47:49:71 adr: 1 control: 2 mode: -1
track:  24 lba:    224084 (   896336) 49:49:59 adr: 1 control: 2 mode: -1
track:  25 lba:    236180 (   944720) 52:31:05 adr: 1 control: 2 mode: -1
track:  26 lba:    246384 (   985536) 54:47:09 adr: 1 control: 2 mode: -1
track:  27 lba:    254888 (  1019552) 56:40:38 adr: 1 control: 2 mode: -1
track:  28 lba:    266035 (  1064140) 59:09:10 adr: 1 control: 2 mode: -1
track:  29 lba:    274142 (  1096568) 60:57:17 adr: 1 control: 2 mode: -1
track:  30 lba:    281223 (  1124892) 62:31:48 adr: 1 control: 2 mode: -1
track:  31 lba:    290218 (  1160872) 64:31:43 adr: 1 control: 2 mode: -1
track:  32 lba:    296291 (  1185164) 65:52:41 adr: 1 control: 2 mode: -1
track:  33 lba:    311249 (  1244996) 69:11:74 adr: 1 control: 2 mode: -1
track:  34 lba:    316169 (  1264676) 70:17:44 adr: 1 control: 2 mode: -1
track:  35 lba:    326209 (  1304836) 72:31:34 adr: 1 control: 2 mode: -1
track:  36 lba:    333091 (  1332364) 74:03:16 adr: 1 control: 2 mode: -1
track:lout lba:    340769 (  1363076) 75:45:44 adr: 1 control: 2 mode: -1
